<mxfile host="app.diagrams.net" modified="2021-11-25T14:01:23.228Z" agent="5.0 (Windows)" etag="z_Ye1RLlYMqEJ6fSwpcT" version="15.8.6" type="github">
  <diagram id="8xfB0TFTYywYnLrSX1gg" name="Page-1">
    <mxGraphModel dx="1017" dy="1755" grid="1" gridSize="10" guides="1" tooltips="1" connect="1" arrows="1" fold="1" page="1" pageScale="1" pageWidth="850" pageHeight="1100" math="0" shadow="0">
      <root>
        <mxCell id="0" />
        <mxCell id="1" parent="0" />
        <mxCell id="YqDdwWKUUQdOKaFSzS0O-1" value="" style="rounded=0;whiteSpace=wrap;html=1;" vertex="1" parent="1">
          <mxGeometry x="20" y="100" width="810" height="360" as="geometry" />
        </mxCell>
        <mxCell id="YqDdwWKUUQdOKaFSzS0O-2" value="" style="ellipse;whiteSpace=wrap;html=1;" vertex="1" parent="1">
          <mxGeometry x="690" y="120" width="120" height="80" as="geometry" />
        </mxCell>
        <mxCell id="YqDdwWKUUQdOKaFSzS0O-3" value="" style="ellipse;whiteSpace=wrap;html=1;" vertex="1" parent="1">
          <mxGeometry x="40" y="120" width="120" height="80" as="geometry" />
        </mxCell>
        <mxCell id="YqDdwWKUUQdOKaFSzS0O-4" value="Actor" style="shape=umlActor;verticalLabelPosition=bottom;verticalAlign=top;html=1;outlineConnect=0;" vertex="1" parent="1">
          <mxGeometry x="80" y="130" width="30" height="60" as="geometry" />
        </mxCell>
        <mxCell id="YqDdwWKUUQdOKaFSzS0O-5" value="" style="rounded=0;whiteSpace=wrap;html=1;fillColor=#d5e8d4;strokeColor=#82b366;" vertex="1" parent="1">
          <mxGeometry x="60" y="220" width="120" height="10" as="geometry" />
        </mxCell>
        <mxCell id="YqDdwWKUUQdOKaFSzS0O-6" value="" style="rounded=0;whiteSpace=wrap;html=1;fillColor=#fff2cc;strokeColor=#d6b656;" vertex="1" parent="1">
          <mxGeometry x="60" y="230" width="120" height="10" as="geometry" />
        </mxCell>
        <mxCell id="YqDdwWKUUQdOKaFSzS0O-7" value="" style="rounded=0;whiteSpace=wrap;html=1;fillColor=#e1d5e7;strokeColor=#9673a6;" vertex="1" parent="1">
          <mxGeometry x="60" y="240" width="120" height="10" as="geometry" />
        </mxCell>
        <mxCell id="YqDdwWKUUQdOKaFSzS0O-10" value="" style="rounded=1;whiteSpace=wrap;html=1;" vertex="1" parent="1">
          <mxGeometry x="220" y="120" width="400" height="60" as="geometry" />
        </mxCell>
        <mxCell id="YqDdwWKUUQdOKaFSzS0O-15" style="edgeStyle=orthogonalEdgeStyle;rounded=0;orthogonalLoop=1;jettySize=auto;html=1;" edge="1" parent="1" source="YqDdwWKUUQdOKaFSzS0O-11" target="YqDdwWKUUQdOKaFSzS0O-10">
          <mxGeometry relative="1" as="geometry" />
        </mxCell>
        <mxCell id="YqDdwWKUUQdOKaFSzS0O-11" value="Compass    " style="swimlane;fontStyle=1;align=center;verticalAlign=top;childLayout=stackLayout;horizontal=1;startSize=26;horizontalStack=0;resizeParent=1;resizeParentMax=0;resizeLast=0;collapsible=1;marginBottom=0;" vertex="1" parent="1">
          <mxGeometry x="330" y="-90" width="290" height="86" as="geometry" />
        </mxCell>
        <mxCell id="YqDdwWKUUQdOKaFSzS0O-12" value="raw Image on updaate" style="text;strokeColor=none;fillColor=none;align=left;verticalAlign=top;spacingLeft=4;spacingRight=4;overflow=hidden;rotatable=0;points=[[0,0.5],[1,0.5]];portConstraint=eastwest;" vertex="1" parent="YqDdwWKUUQdOKaFSzS0O-11">
          <mxGeometry y="26" width="290" height="26" as="geometry" />
        </mxCell>
        <mxCell id="YqDdwWKUUQdOKaFSzS0O-13" value="" style="line;strokeWidth=1;fillColor=none;align=left;verticalAlign=middle;spacingTop=-1;spacingLeft=3;spacingRight=3;rotatable=0;labelPosition=right;points=[];portConstraint=eastwest;" vertex="1" parent="YqDdwWKUUQdOKaFSzS0O-11">
          <mxGeometry y="52" width="290" height="8" as="geometry" />
        </mxCell>
        <mxCell id="YqDdwWKUUQdOKaFSzS0O-14" value="change that image as the player turns" style="text;strokeColor=none;fillColor=none;align=left;verticalAlign=top;spacingLeft=4;spacingRight=4;overflow=hidden;rotatable=0;points=[[0,0.5],[1,0.5]];portConstraint=eastwest;" vertex="1" parent="YqDdwWKUUQdOKaFSzS0O-11">
          <mxGeometry y="60" width="290" height="26" as="geometry" />
        </mxCell>
        <mxCell id="YqDdwWKUUQdOKaFSzS0O-20" style="edgeStyle=orthogonalEdgeStyle;rounded=0;orthogonalLoop=1;jettySize=auto;html=1;" edge="1" parent="1" source="YqDdwWKUUQdOKaFSzS0O-16" target="YqDdwWKUUQdOKaFSzS0O-2">
          <mxGeometry relative="1" as="geometry" />
        </mxCell>
        <mxCell id="YqDdwWKUUQdOKaFSzS0O-16" value="Minimap    " style="swimlane;fontStyle=1;align=center;verticalAlign=top;childLayout=stackLayout;horizontal=1;startSize=26;horizontalStack=0;resizeParent=1;resizeParentMax=0;resizeLast=0;collapsible=1;marginBottom=0;" vertex="1" parent="1">
          <mxGeometry x="710" y="-64" width="260" height="86" as="geometry" />
        </mxCell>
        <mxCell id="YqDdwWKUUQdOKaFSzS0O-17" value="camera over player " style="text;strokeColor=none;fillColor=none;align=left;verticalAlign=top;spacingLeft=4;spacingRight=4;overflow=hidden;rotatable=0;points=[[0,0.5],[1,0.5]];portConstraint=eastwest;" vertex="1" parent="YqDdwWKUUQdOKaFSzS0O-16">
          <mxGeometry y="26" width="260" height="26" as="geometry" />
        </mxCell>
        <mxCell id="YqDdwWKUUQdOKaFSzS0O-18" value="" style="line;strokeWidth=1;fillColor=none;align=left;verticalAlign=middle;spacingTop=-1;spacingLeft=3;spacingRight=3;rotatable=0;labelPosition=right;points=[];portConstraint=eastwest;" vertex="1" parent="YqDdwWKUUQdOKaFSzS0O-16">
          <mxGeometry y="52" width="260" height="8" as="geometry" />
        </mxCell>
        <mxCell id="YqDdwWKUUQdOKaFSzS0O-19" value="camera render image of player top view" style="text;strokeColor=none;fillColor=none;align=left;verticalAlign=top;spacingLeft=4;spacingRight=4;overflow=hidden;rotatable=0;points=[[0,0.5],[1,0.5]];portConstraint=eastwest;" vertex="1" parent="YqDdwWKUUQdOKaFSzS0O-16">
          <mxGeometry y="60" width="260" height="26" as="geometry" />
        </mxCell>
      </root>
    </mxGraphModel>
  </diagram>
</mxfile>
